<?xml version="1.0" encoding="UTF-8"?>
<svg id="neon_green" data-name="neon green" xmlns="http://www.w3.org/2000/svg" viewBox="0 0 2837.94 655.59">
  <defs>
    <style>
      .cls-1 {
        fill: none;
        stroke: #4bff00;
        stroke-miterlimit: 10;
        stroke-width: 10px;
      }

      .cls-2 {
        fill: #4bff00;
      }

      .cls-2, .cls-3 {
        stroke-width: 0px;
      }

      .cls-3 {
        fill: #fff;
      }
    </style>
  </defs>
  <polygon class="cls-3" points="2843.94 655.59 -.61 655.59 -4.62 0 2839.93 0 2843.94 655.59"/>
  <g>
    <path class="cls-2" d="M417.99,365.67c-41.82-15.93-55.91-26.14-55.91-45.53,0-17.69,12.82-30.46,32.9-33.95,33.93-4.5,58.23,8.24,58.23,8.24,6.54,2.79,11.46,5.61,14.44,7.5l7.48,4.73,18.67-69.09s-51.85-20.21-102.91-17.74c-28.59,1.38-64.1,11.8-89.69,37.79-18.58,18.87-30.59,42.13-30.59,68.88,0,52.05,44.73,79.62,83.86,93.57,39.31,14.51,59.3,16.52,59.3,39.35,0,20.86-14.11,32.87-39.2,36.27-34.69,4.08-66.32-13.92-66.32-13.92-5.37-2.5-21.16-10.35-25.24-13.01l-4.13,13.91-18.9,57.57,5.19,1.86c68.6,24.52,111.64,21.93,116.04,21.93,74.07,0,121.93-38.89,121.93-99.08,0-24.3-7.24-44.11-22.13-60.58-13.62-15.06-34.23-27.71-63.03-38.68Z"/>
    <path class="cls-2" d="M831.07,466.83v-230.53h-96.01v195.61c0,9.04-1.63,18.27-4.58,25.99-7.71,18.73-47.46,61.99-88.46,22.67-12.73-12.21-14.17-37.5-14.17-67.08v-177.19h-96.01v186.72c0,50.66,11.88,82.2,37.02,105.78,37.62,35.29,98.14,33.84,102.16,33.84,25.92,0,54.92-8.5,69.7-18.47.91-.62,1.81-1.23,2.7-1.86l.97,15.34h89.8l-.6-7.55c-1.72-21.79-2.52-48.25-2.52-83.28Z"/>
    <path class="cls-2" d="M1133.72,256.98c-65.97-56.07-149.15-21.09-168.91-8.65-1.54.97-3.05,1.98-4.55,3.02l-.94-15.05h-89.77l.56,7.52c1.77,23.58,2.52,48.3,2.52,82.67v231.17h96v-191.79c0-9.1,1.24-17.72,3.39-23.65l.11-.34c4.4-14.38,13.25-27.46,24.92-36.84,9.17-7.37,80.7-31.65,81.33,68.45v184.18h96v-190.52c0-48.95-13.08-86.71-40.67-110.16Z"/>
    <path class="cls-2" d="M1536.61,471.28V92.78h-96.01v150.94c-17.72-9.55-60.29-16.32-86.99-14.41-36.37,2.6-70.79,14.33-96.65,40.35-31.38,31.58-48.49,78.39-48.15,131.76,0,46.26,12.17,89.78,39.56,117.68,72.98,74.35,173.68,39.2,193.42,27.21,2.28-1.38,4.48-2.86,6.65-4.38l.75,15.72h90.63l-.7-7.64c-2.19-23.95-2.51-59.62-2.51-78.75ZM1326.88,474.92c-16.18-16.82-21.43-45.81-21.43-76.03,0-32.14,8.83-60.31,22.98-80.67,20.89-30.05,90.61-41.92,109.81,28.28l.06.26c1.44,5.27,2.29,13.37,2.29,21.65v53.35c0,9.06-1.54,15.83-2.34,22.48-4.83,39.91-74.26,69.27-111.38,30.68Z"/>
    <path class="cls-2" d="M1719.07,229.32c-23.45.85-40.15,7.25-56.23,20.09l-.41-13.1h-89.28l.5,7.47c1.75,26.22,2.53,55.65,2.53,95.43v218.47h95.37v-170.84c0-8.98,1.23-17.59,2.43-24.83,3.57-19.57,12.31-35.54,23.59-47.82,21.32-23.21,56.51-17.62,61.99-16.41l8.52,1.9v-66.9s-34.53-3.96-49-3.44Z"/>
    <polygon class="cls-2" points="1827.47 236.3 1801.35 236.3 1801.35 557.66 1827.47 557.66 1871.23 557.66 1897.35 557.66 1897.35 236.3 1871.23 236.3 1827.47 236.3"/>
  </g>
  <circle class="cls-2" cx="1849.35" cy="164.48" r="50.53"/>
  <path class="cls-2" d="M2597.63,468.93V90.43h-96.01v150.94c-17.72-9.55-60.29-16.32-86.99-14.41-36.37,2.6-70.79,14.33-96.65,40.35-31.38,31.58-48.49,78.39-48.15,131.76,0,46.26,12.43,89.53,39.56,117.68,71.22,73.9,173.68,39.2,193.42,27.21,2.28-1.38,4.48-2.86,6.65-4.38l.75,15.72h90.63l-.7-7.64c-2.19-23.95-2.51-59.62-2.51-78.75ZM2387.89,472.57c-16.18-16.82-21.43-45.81-21.43-76.03,0-32.14,8.83-60.31,22.98-80.67,20.89-30.05,90.61-41.92,109.81,28.28l.06.26c1.44,5.27,2.29,13.37,2.29,21.65v53.35c0,9.06-1.54,15.83-2.34,22.48-4.83,39.91-74.26,69.27-111.38,30.68Z"/>
  <path class="cls-2" d="M2093.77,217.68c-5.85.02-76.57-2.66-125.44,54.25-26.34,30.68-40.12,74.45-40.12,122.12s17.75,83.93,42.03,109.08c81.59,84.52,204.62,50.89,247.36,33.2l5.27-2.38-12.1-72.38-8.3,4.93c-5.03,2.13-46.86,33.34-92.84,30.92-30.5-3.55-43.26-8.57-58.03-21.82-17.89-16.04-27.84-39.39-29.63-69.47h214.9l.69-6.22c.09-.79.19-1.64.29-2.55.7-5.92,1.65-14.03,1.65-24.26,0-16.97-2.63-60.44-27.03-97.44-23.44-35.55-71.25-58.13-118.69-57.97ZM2044.19,303.47c14.07-15.47,32.43-18.32,48.51-17.76,38.61,1.33,51.67,42.72,52.62,66.41h-121.9c3.29-18.2,9.67-36.44,20.77-48.65Z"/>
  <circle class="cls-1" cx="2702.52" cy="90.43" r="52.81"/>
  <path class="cls-2" d="M2684.81,62.2c3.55-.73,8.63-1.13,13.47-1.13,7.5,0,12.34,1.37,15.73,4.44,2.74,2.42,4.28,6.13,4.28,10.33,0,7.18-4.52,11.94-10.25,13.88v.24c4.2,1.45,6.7,5.32,7.99,10.97,1.77,7.58,3.07,12.83,4.2,14.93h-7.26c-.89-1.53-2.1-6.21-3.63-12.99-1.61-7.5-4.52-10.33-10.89-10.57h-6.62v23.56h-7.02v-53.65ZM2691.83,86.97h7.18c7.5,0,12.26-4.11,12.26-10.33,0-7.02-5.08-10.08-12.51-10.17-3.39,0-5.81.32-6.94.65v19.85Z"/>
</svg>